<mxfile host="app.diagrams.net" agent="Mozilla/5.0 (X11; Linux x86_64; rv:138.0) Gecko/20100101 Firefox/138.0" version="26.2.14">
  <diagram name="Page-1" id="if8SajUoL7uHe6yjdpfp">
    <mxGraphModel dx="983" dy="821" grid="0" gridSize="10" guides="1" tooltips="1" connect="1" arrows="1" fold="1" page="0" pageScale="1" pageWidth="850" pageHeight="1100" math="0" shadow="0">
      <root>
        <mxCell id="0" />
        <mxCell id="1" parent="0" />
        <mxCell id="5aS5Ij_34gLMSYPQdmeC-1" value="Slave Cluster 1" style="rounded=1;whiteSpace=wrap;html=1;fillColor=#f8cecc;strokeColor=#b85450;" vertex="1" parent="1">
          <mxGeometry x="-44" y="232" width="151" height="77" as="geometry" />
        </mxCell>
        <mxCell id="5aS5Ij_34gLMSYPQdmeC-2" value="Slave Cluster 2" style="rounded=1;whiteSpace=wrap;html=1;fillColor=#f8cecc;strokeColor=#b85450;" vertex="1" parent="1">
          <mxGeometry x="131" y="232" width="158" height="80" as="geometry" />
        </mxCell>
        <mxCell id="5aS5Ij_34gLMSYPQdmeC-3" value="Slave Cluster 3" style="rounded=1;whiteSpace=wrap;html=1;fillColor=#f8cecc;strokeColor=#b85450;" vertex="1" parent="1">
          <mxGeometry x="323" y="233" width="137" height="78" as="geometry" />
        </mxCell>
        <mxCell id="5aS5Ij_34gLMSYPQdmeC-5" style="edgeStyle=none;curved=1;rounded=0;orthogonalLoop=1;jettySize=auto;html=1;entryX=0.439;entryY=0.009;entryDx=0;entryDy=0;fontSize=12;startSize=8;endSize=8;exitX=0;exitY=0.5;exitDx=0;exitDy=0;entryPerimeter=0;" edge="1" parent="1" source="5aS5Ij_34gLMSYPQdmeC-4" target="5aS5Ij_34gLMSYPQdmeC-1">
          <mxGeometry relative="1" as="geometry">
            <mxPoint x="121" y="90" as="sourcePoint" />
            <Array as="points">
              <mxPoint x="20" y="90" />
            </Array>
          </mxGeometry>
        </mxCell>
        <mxCell id="5aS5Ij_34gLMSYPQdmeC-6" style="edgeStyle=none;curved=1;rounded=0;orthogonalLoop=1;jettySize=auto;html=1;fontSize=12;startSize=8;endSize=8;" edge="1" parent="1" source="5aS5Ij_34gLMSYPQdmeC-4" target="5aS5Ij_34gLMSYPQdmeC-2">
          <mxGeometry relative="1" as="geometry" />
        </mxCell>
        <mxCell id="5aS5Ij_34gLMSYPQdmeC-7" style="edgeStyle=none;curved=1;rounded=0;orthogonalLoop=1;jettySize=auto;html=1;fontSize=12;startSize=8;endSize=8;exitX=1;exitY=0.5;exitDx=0;exitDy=0;entryX=0.607;entryY=0.007;entryDx=0;entryDy=0;entryPerimeter=0;" edge="1" parent="1" source="5aS5Ij_34gLMSYPQdmeC-4" target="5aS5Ij_34gLMSYPQdmeC-3">
          <mxGeometry relative="1" as="geometry">
            <mxPoint x="401" y="235" as="targetPoint" />
            <Array as="points">
              <mxPoint x="406" y="87" />
            </Array>
          </mxGeometry>
        </mxCell>
        <mxCell id="5aS5Ij_34gLMSYPQdmeC-4" value="Master Cluster" style="rounded=1;whiteSpace=wrap;html=1;fillColor=#d5e8d4;strokeColor=#82b366;" vertex="1" parent="1">
          <mxGeometry x="122" y="26" width="169" height="89" as="geometry" />
        </mxCell>
        <mxCell id="5aS5Ij_34gLMSYPQdmeC-8" value="" style="rounded=1;whiteSpace=wrap;html=1;fillColor=#d5e8d4;strokeColor=#82b366;" vertex="1" parent="1">
          <mxGeometry x="-40" y="236" width="23" height="22" as="geometry" />
        </mxCell>
        <mxCell id="5aS5Ij_34gLMSYPQdmeC-9" value="" style="rounded=1;whiteSpace=wrap;html=1;fillColor=#d5e8d4;strokeColor=#82b366;" vertex="1" parent="1">
          <mxGeometry x="137" y="236" width="23" height="22" as="geometry" />
        </mxCell>
        <mxCell id="5aS5Ij_34gLMSYPQdmeC-10" value="" style="rounded=1;whiteSpace=wrap;html=1;fillColor=#d5e8d4;strokeColor=#82b366;" vertex="1" parent="1">
          <mxGeometry x="330" y="236" width="23" height="22" as="geometry" />
        </mxCell>
      </root>
    </mxGraphModel>
  </diagram>
</mxfile>
